<svg width="3636" height="3199" xmlns="http://www.w3.org/2000/svg" xmlns:xlink="http://www.w3.org/1999/xlink" xml:space="preserve" overflow="hidden"><g transform="translate(-382 362)"><g><g><g><path d="M2222.18 1012.07 1751.73 193.62C1734.64 164.028 1703.07 142.199 1668.9 142.199L727.987 142.199C693.81 142.199 662.233 164.028 645.144 193.62L174.694 1010.26C157.605 1039.86 157.605 1077.22 174.694 1106.82L645.144 1918.56C662.233 1948.16 693.81 1963.29 727.987 1963.29L1668.9 1963.29C1703.07 1963.29 1734.64 1948.61 1751.72 1919.01L2222.17 1105.94C2239.28 1076.36 2239.28 1041.66 2222.18 1012.07M1832.62 1405.63C1832.62 1417.67 1825.38 1428.8 1814.95 1434.82L1215.7 1780.56C1205.27 1786.58 1192.22 1786.58 1181.8 1780.56L582.081 1434.82C571.659 1428.8 564.366 1417.68 564.366 1405.63L564.366 714.15C564.366 702.11 571.553 690.988 581.983 684.964L1181.21 339.226C1191.63 333.202 1204.67 333.202 1215.1 339.226L1814.85 684.964C1825.28 690.988 1832.62 702.11 1832.62 714.15Z" fill="#4B32C3" transform="matrix(1.00012 0 0 1 1001.42 184.758)"/></g></g></g><path d="M1365.86 1393.94 2047.68 1000.29C2064.74 990.44 2085.77 990.44 2102.84 1000.29L2784.67 1393.94C2801.72 1403.8 2812.25 1422 2812.25 1441.71L2812.25 2229C2812.25 2248.7 2801.72 2266.92 2784.67 2276.78L2102.84 2670.43C2085.77 2680.29 2064.74 2680.29 2047.68 2670.43L1365.86 2276.78C1348.79 2266.93 1338.28 2248.71 1338.28 2229L1338.28 1441.71C1338.29 1422 1348.81 1403.8 1365.86 1393.94" fill="#8080F2" transform="matrix(1 0 0 1.00021 124.738 -585.847)"/><g><g><g><path d="M1392.02 633.98 1097.32 121.288C1086.61 102.75 1066.84 89.0764 1045.43 89.0764L456.026 89.0764C434.616 89.0764 414.836 102.75 404.131 121.288L109.432 632.849C98.727 651.392 98.727 674.793 109.432 693.335L404.131 1201.83C414.836 1220.36 434.616 1229.84 456.026 1229.84L1045.43 1229.84C1066.83 1229.84 1086.61 1220.65 1097.31 1202.11L1392.01 692.785C1402.73 674.253 1402.73 652.517 1392.02 633.98M1147.99 880.517C1147.99 888.055 1143.45 895.026 1136.92 898.8L761.537 1115.38C755.008 1119.15 746.829 1119.15 740.3 1115.38L364.627 898.8C358.098 895.026 353.53 888.06 353.53 880.517L353.53 447.358C353.53 439.816 358.032 432.849 364.566 429.075L739.933 212.498C746.462 208.724 754.631 208.724 761.16 212.498L1136.86 429.075C1143.39 432.849 1147.99 439.816 1147.99 447.358Z" fill="#B7B7FF" transform="matrix(1.00051 0 0 1 1448.89 578.04)"/></g></g></g><g><g><g><path d="M809.144 825.782 1213.06 592.582C1223.17 586.744 1235.63 586.744 1245.74 592.582L1649.66 825.782C1659.76 831.62 1666 842.403 1666 854.079L1666 1320.48C1666 1332.15 1659.76 1342.94 1649.66 1348.78L1245.74 1581.98C1235.63 1587.82 1223.17 1587.82 1213.06 1581.98L809.144 1348.78C799.036 1342.95 792.806 1332.15 792.806 1320.48L792.806 854.079C792.815 842.403 799.044 831.62 809.144 825.782" fill="#F6F6FE" transform="matrix(1 0 0 1.00015 970.594 157.399)"/></g></g></g><g><g><g><path d="M581.778 506.433 45.2224 506.433C20.2612 506.433 0.0261236 486.199 0.0261236 461.237L0.026125 165.763C0.026125 140.802 20.2612 120.567 45.2224 120.567L581.778 120.567C606.74 120.567 626.974 140.802 626.974 165.763L626.974 461.185C626.99 486.147 606.766 506.391 581.804 506.407 581.796 506.407 581.785 506.407 581.778 506.407ZM150.715 415.988 150.715 298.426 211.012 373.796 271.282 298.426 271.282 415.988 331.579 415.988 331.579 211.038 271.282 211.038 211.012 286.408 150.715 211.038 90.4186 211.038 90.4186 416.041ZM554.66 313.5 494.363 313.5 494.363 211.012 434.093 211.012 434.093 313.5 373.796 313.5 464.215 419.019Z" fill="#4B32C3" transform="matrix(1.00159 0 0 1 1886 924)"/></g></g></g></g></svg>
