<svg width="470" height="470" xmlns="http://www.w3.org/2000/svg" xmlns:xlink="http://www.w3.org/1999/xlink" xml:space="preserve" overflow="hidden"><g transform="translate(-405 -125)"><path d="M500.114 227.772 394.237 43.5753C390.391 36.9155 383.286 32.0027 375.596 32.0027L163.838 32.0027C156.146 32.0027 149.039 36.9155 145.193 43.5753L39.3159 227.365C35.4699 234.027 35.4699 242.435 39.3159 249.096L145.193 431.783C149.039 438.445 156.146 441.85 163.838 441.85L375.596 441.85C383.286 441.85 390.391 438.546 394.235 431.884L500.112 248.898C503.963 242.241 503.963 234.432 500.114 227.772M412.442 316.345C412.442 319.055 410.812 321.56 408.465 322.915L273.6 400.725C271.253 402.08 268.316 402.08 265.971 400.725L131.001 322.915C128.655 321.56 127.014 319.057 127.014 316.345L127.014 160.724C127.014 158.014 128.631 155.511 130.979 154.155L265.838 76.3448C268.183 74.989 271.118 74.989 273.465 76.3448L408.442 154.155C410.79 155.511 412.442 158.014 412.442 160.724Z" fill="#4B32C3" transform="matrix(1.00014 0 0 1 370.252 123.082)"/><path d="M307.4 313.719 460.85 225.125C464.689 222.908 469.422 222.908 473.264 225.125L626.716 313.719C630.554 315.939 632.924 320.035 632.924 324.471L632.924 501.658C632.924 506.091 630.554 510.192 626.716 512.411L473.264 601.006C469.422 603.225 464.689 603.225 460.85 601.006L307.4 512.411C303.558 510.194 301.193 506.094 301.193 501.658L301.193 324.471C301.195 320.035 303.563 315.939 307.4 313.719" fill="#8080F2" transform="matrix(1 0 0 1.00019 172.947 -50.3476)"/><path d="M313.282 142.681 246.958 27.2966C244.548 23.1245 240.099 20.0472 235.28 20.0472L102.631 20.0472C97.8128 20.0472 93.3612 23.1245 90.952 27.2966L24.6283 142.426C22.2191 146.6 22.2191 151.866 24.6283 156.039L90.952 270.479C93.3612 274.649 97.8128 276.783 102.631 276.783L235.28 276.783C240.096 276.783 244.548 274.714 246.956 270.542L313.28 155.915C315.693 151.745 315.693 146.853 313.282 142.681M258.362 198.165C258.362 199.862 257.34 201.431 255.87 202.28L171.388 251.023C169.919 251.871 168.078 251.871 166.609 251.023L82.0614 202.28C80.592 201.431 79.564 199.863 79.564 198.165L79.564 100.681C79.564 98.9831 80.5772 97.4152 82.0477 96.5658L166.526 47.8239C167.996 46.9745 169.834 46.9745 171.303 47.8239L255.857 96.5658C257.327 97.4152 258.362 98.9831 258.362 100.681Z" fill="#B7B7FF" transform="matrix(1.00053 0 0 1 470.96 211.592)"/><path d="M182.106 185.85 273.011 133.366C275.286 132.052 278.09 132.052 280.366 133.366L371.272 185.85C373.545 187.164 374.949 189.591 374.949 192.219L374.949 297.187C374.949 299.813 373.545 302.241 371.272 303.556L280.366 356.04C278.09 357.354 275.286 357.354 273.011 356.04L182.106 303.556C179.831 302.244 178.429 299.813 178.429 297.187L178.429 192.219C178.431 189.591 179.832 187.164 182.106 185.85" fill="#F6F6FE" transform="matrix(1 0 0 1.00013 363.315 116.924)"/><path d="M130.933 113.976 10.1776 113.976C4.5599 113.976 0.00587927 109.422 0.00587927 103.804L0.00587958 37.3059C0.00587958 31.6883 4.5599 27.1343 10.1776 27.1343L130.933 27.1343C136.55 27.1343 141.104 31.6883 141.104 37.3059L141.104 103.792C141.108 109.41 136.556 113.966 130.938 113.97 130.937 113.97 130.934 113.97 130.933 113.97ZM33.9193 93.6205 33.9193 67.1625 47.4895 84.1249 61.0536 67.1625 61.0536 93.6205 74.6238 93.6205 74.6238 47.4953 61.0536 47.4953 47.4895 64.4578 33.9193 47.4953 20.3492 47.4953 20.3492 93.6324ZM124.829 70.555 111.259 70.555 111.259 47.4895 97.6951 47.4895 97.6951 70.555 84.1249 70.555 104.474 94.3027Z" fill="#4B32C3" transform="matrix(1.00161 0 0 1 569.335 289.452)"/></g></svg>